<svg xmlns="http://www.w3.org/2000/svg" viewBox="0 0 269.37 137.78"><title>Recurso 1</title><g id="Capa_2" data-name="Capa 2"><g id="Capa_1-2" data-name="Capa 1"><circle cx="129.04" cy="51.72" r="9.85"/><circle cx="155.27" cy="51.72" r="9.85"/><rect x="122.11" y="71.31" width="39.86" height="6.19"/><path d="M190.65,2.7V26a58.4,58.4,0,0,0-7.16-8.7,59.59,59.59,0,0,0-18.8-12.64,59,59,0,0,0-45.85,0A59,59,0,0,0,87.4,36.07,57.44,57.44,0,0,0,82.77,59c0,1.65.08,3.28.21,4.89a30.4,30.4,0,0,0-2.74-4.22,28.64,28.64,0,0,0-6.74-6.07,21,21,0,0,0,4.21-5.06,35.56,35.56,0,0,0,2.87-6.32A27.55,27.55,0,0,0,81.92,33a29.63,29.63,0,0,0-2.78-13.23,26.37,26.37,0,0,0-7.75-9.44,34.87,34.87,0,0,0-12-5.73A57.69,57.69,0,0,0,44,2.7H0V115.13H45.85A56.13,56.13,0,0,0,63,112.69a36.05,36.05,0,0,0,13-7.08A31.29,31.29,0,0,0,84.11,94.4a36,36,0,0,0,2.82-13.64c.16.39.3.78.47,1.17q1.21,2.81,2.65,5.42a58.61,58.61,0,0,0,10,13.37,59.44,59.44,0,0,0,18.79,12.64,59,59,0,0,0,45.85,0,59,59,0,0,0,31.44-31.44A57.51,57.51,0,0,0,200.76,59a57.51,57.51,0,0,0-4.63-22.93c-.57-1.33-1.19-2.61-1.84-3.88h17.09v82.94h37.09V32.2H269.2V2.7ZM112.17,61.41a9.85,9.85,0,0,1,0-19.71Zm56.62,24H115.5V32.08h24.76l.87-9a5.39,5.39,0,1,1,2.37,0l1,9h24.24Zm3.7-24V41.7a9.85,9.85,0,0,1,0,19.71Z"/><path d="M6.4,134.31a4,4,0,0,1-.25,1.46,3.2,3.2,0,0,1-.68,1.09,2.92,2.92,0,0,1-1,.68,3.37,3.37,0,0,1-1.27.24,4.08,4.08,0,0,1-1.73-.38,3.51,3.51,0,0,1-1.31-1l.9-1.1a2.71,2.71,0,0,0,1,.8,2.65,2.65,0,0,0,1.18.29,1.66,1.66,0,0,0,1.25-.51,2,2,0,0,0,.49-1.47,2,2,0,0,0-.15-.8,2.16,2.16,0,0,0-.42-.62,3.68,3.68,0,0,0-.62-.51A7.33,7.33,0,0,0,3,132a7.15,7.15,0,0,1-.92-.53,4.09,4.09,0,0,1-.77-.68,2.9,2.9,0,0,1-.53-.92,3.67,3.67,0,0,1-.2-1.26,3.87,3.87,0,0,1,.27-1.5,3.09,3.09,0,0,1,.72-1.07,2.86,2.86,0,0,1,1-.62,3.46,3.46,0,0,1,1.17-.2,4,4,0,0,1,1.55.29,2.84,2.84,0,0,1,1.14.86l-.91,1.08a2.06,2.06,0,0,0-1.73-.85,1.92,1.92,0,0,0-.63.11,1.57,1.57,0,0,0-.57.36,1.79,1.79,0,0,0-.41.62,2.39,2.39,0,0,0-.15.9,2,2,0,0,0,.14.79,2.06,2.06,0,0,0,.39.59,3.08,3.08,0,0,0,.57.47,7.14,7.14,0,0,0,.69.4,9.13,9.13,0,0,1,.93.53,4.26,4.26,0,0,1,.83.7,3.22,3.22,0,0,1,.6,1A3.33,3.33,0,0,1,6.4,134.31Z"/><path d="M19.49,131.48a10.91,10.91,0,0,1-.28,2.56,6.36,6.36,0,0,1-.81,2,4,4,0,0,1-1.29,1.29,3.24,3.24,0,0,1-1.72.46,3.29,3.29,0,0,1-1.73-.46A4,4,0,0,1,12.38,136a6.41,6.41,0,0,1-.81-2,11,11,0,0,1-.28-2.56,11.37,11.37,0,0,1,.27-2.56,6.38,6.38,0,0,1,.79-2,3.82,3.82,0,0,1,1.29-1.27,3.42,3.42,0,0,1,1.75-.45,3.3,3.3,0,0,1,1.72.45,3.93,3.93,0,0,1,1.29,1.27,6.29,6.29,0,0,1,.81,2A10.91,10.91,0,0,1,19.49,131.48Zm-1.61,0a10.89,10.89,0,0,0-.16-1.91,6.2,6.2,0,0,0-.47-1.56,3,3,0,0,0-.78-1,1.65,1.65,0,0,0-1.08-.38,1.7,1.7,0,0,0-1.1.38,2.89,2.89,0,0,0-.79,1,5.9,5.9,0,0,0-.47,1.56,12.06,12.06,0,0,0,0,3.82,5.9,5.9,0,0,0,.47,1.56,2.91,2.91,0,0,0,.79,1,1.71,1.71,0,0,0,1.1.38,1.66,1.66,0,0,0,1.08-.38,3,3,0,0,0,.78-1,6.21,6.21,0,0,0,.47-1.56A10.88,10.88,0,0,0,17.89,131.48Z"/><path d="M30.44,137.34a3.27,3.27,0,0,1-1.73.43,3.44,3.44,0,0,1-1.79-.47A4,4,0,0,1,25.58,136a6.62,6.62,0,0,1-.83-2,10.85,10.85,0,0,1,0-5,6.58,6.58,0,0,1,.85-2,4.15,4.15,0,0,1,1.34-1.31,3.37,3.37,0,0,1,1.77-.47,3.93,3.93,0,0,1,1.67.35,3,3,0,0,1,1.25,1.08l-.95,1a2.46,2.46,0,0,0-.86-.8,2.18,2.18,0,0,0-1-.26,1.91,1.91,0,0,0-1.2.39,3,3,0,0,0-.84,1,5.91,5.91,0,0,0-.5,1.55,10,10,0,0,0-.17,1.89,9.9,9.9,0,0,0,.17,1.88,5.86,5.86,0,0,0,.51,1.55A3,3,0,0,0,27.6,136a2,2,0,0,0,1.21.39,1.88,1.88,0,0,0,1.11-.34,2.63,2.63,0,0,0,.77-.83l.91,1A3.58,3.58,0,0,1,30.44,137.34Z"/><path d="M36.59,137.49v-12h1.52v12Z"/><path d="M49.33,137.49l-.68-2.81H45.18l-.69,2.81H43l3-12h2l2.94,12ZM47,126.93h-.07l-1.52,6.55h3.06Z"/><path d="M55.75,137.49v-12h1.52v10.56h3.38v1.42Z"/><path d="M79.82,137.49v-9.91h-.05l-2.67,9.91H75.73l-2.64-9.91H73v9.91h-1.4v-12h2.24L76.43,135h.07L79,125.51h2.34v12Z"/><path d="M87.35,137.49v-12h5v1.35H88.82v3.77h3.33v1.27H88.82v4.21h3.74v1.37Z"/><path d="M105.17,131.52A7.14,7.14,0,0,1,104,136a4,4,0,0,1-3.31,1.53H97.94v-12h2.76a3.92,3.92,0,0,1,3.31,1.54A7.24,7.24,0,0,1,105.17,131.52Zm-1.52,0a8.32,8.32,0,0,0-.23-2.06,4.61,4.61,0,0,0-.62-1.46,2.65,2.65,0,0,0-.94-.86,2.49,2.49,0,0,0-1.17-.29H99.46v9.3h1.23a2.48,2.48,0,0,0,1.17-.29,2.64,2.64,0,0,0,.94-.86,4.56,4.56,0,0,0,.62-1.45A8.12,8.12,0,0,0,103.65,131.52Z"/><path d="M110.67,137.49v-12h1.52v12Z"/><path d="M123.41,137.49l-.68-2.81h-3.47l-.69,2.81H117l3-12h2l2.94,12Zm-2.35-10.55H121l-1.52,6.55h3.06Z"/><path d="M142,137.49,141,136a3.52,3.52,0,0,1-1,1.23,2.53,2.53,0,0,1-1.65.51,2.72,2.72,0,0,1-2.14-.9,3.7,3.7,0,0,1-.8-2.55,3.59,3.59,0,0,1,.58-2.1,4.94,4.94,0,0,1,1.45-1.38,6.11,6.11,0,0,1-.75-1.41,4.05,4.05,0,0,1-.21-1.33,3.53,3.53,0,0,1,.19-1.21,2.58,2.58,0,0,1,.55-.91,2.45,2.45,0,0,1,.83-.57,2.56,2.56,0,0,1,1-.2,2.33,2.33,0,0,1,1.77.72,2.71,2.71,0,0,1,.68,2,2.89,2.89,0,0,1-.19,1.07,3.28,3.28,0,0,1-.5.86,4.62,4.62,0,0,1-.73.72,9.83,9.83,0,0,1-.87.62l1.69,2.49,1-2.59h1.49l-1.62,3.69,1.93,2.77Zm-3.84-5.67a3.45,3.45,0,0,0-.48.39,2.71,2.71,0,0,0-.42.51,2.54,2.54,0,0,0-.3.65,2.77,2.77,0,0,0-.11.82,2.63,2.63,0,0,0,.46,1.65,1.46,1.46,0,0,0,1.21.6,1.36,1.36,0,0,0,.59-.13,1.6,1.6,0,0,0,.48-.35,2.56,2.56,0,0,0,.37-.49,3.22,3.22,0,0,0,.26-.56Zm2-3.86a2.14,2.14,0,0,0-.28-1.15.9.9,0,0,0-.8-.44,1,1,0,0,0-.86.47,2.1,2.1,0,0,0-.32,1.2,3.2,3.2,0,0,0,.18,1.1,5.29,5.29,0,0,0,.57,1.08,4.76,4.76,0,0,0,1.07-.94A2,2,0,0,0,140.23,128Z"/><path d="M160.6,137.34a3.27,3.27,0,0,1-1.73.43,3.45,3.45,0,0,1-1.79-.47,4.06,4.06,0,0,1-1.33-1.32,6.67,6.67,0,0,1-.83-2,10.89,10.89,0,0,1,0-5,6.55,6.55,0,0,1,.85-2,4.14,4.14,0,0,1,1.34-1.31,3.37,3.37,0,0,1,1.77-.47,3.93,3.93,0,0,1,1.67.35,3.06,3.06,0,0,1,1.25,1.08l-.95,1a2.47,2.47,0,0,0-.86-.8,2.19,2.19,0,0,0-1-.26,1.92,1.92,0,0,0-1.2.39,2.94,2.94,0,0,0-.84,1,5.83,5.83,0,0,0-.5,1.55,10,10,0,0,0-.17,1.89,9.9,9.9,0,0,0,.17,1.88,5.79,5.79,0,0,0,.51,1.55,3,3,0,0,0,.85,1.06,2,2,0,0,0,1.21.39,1.88,1.88,0,0,0,1.11-.34,2.63,2.63,0,0,0,.77-.83l.91,1A3.62,3.62,0,0,1,160.6,137.34Z"/><path d="M174.23,131.48a10.92,10.92,0,0,1-.28,2.56,6.44,6.44,0,0,1-.81,2,4,4,0,0,1-1.29,1.29,3.25,3.25,0,0,1-1.72.46,3.29,3.29,0,0,1-1.72-.46,4,4,0,0,1-1.29-1.29,6.44,6.44,0,0,1-.81-2,10.92,10.92,0,0,1-.28-2.56,11.31,11.31,0,0,1,.27-2.56,6.3,6.3,0,0,1,.8-2,3.78,3.78,0,0,1,1.29-1.27,3.42,3.42,0,0,1,1.75-.45,3.31,3.31,0,0,1,1.72.45,3.94,3.94,0,0,1,1.29,1.27,6.36,6.36,0,0,1,.81,2A10.92,10.92,0,0,1,174.23,131.48Zm-1.61,0a11,11,0,0,0-.16-1.91A6.24,6.24,0,0,0,172,128a3,3,0,0,0-.78-1,1.64,1.64,0,0,0-1.07-.38,1.7,1.7,0,0,0-1.1.38,2.89,2.89,0,0,0-.79,1,5.9,5.9,0,0,0-.46,1.56,12.06,12.06,0,0,0,0,3.82,5.91,5.91,0,0,0,.46,1.56,2.91,2.91,0,0,0,.79,1,1.71,1.71,0,0,0,1.1.38,1.66,1.66,0,0,0,1.07-.38,3,3,0,0,0,.78-1,6.25,6.25,0,0,0,.47-1.56A11,11,0,0,0,172.62,131.48Z"/><path d="M185,137.49l-3.82-9.28h-.05v9.28h-1.4v-12h1.83l3.77,9.3h.05v-9.3h1.4v12Z"/><path d="M195.29,126.82v10.67h-1.52V126.82h-2.28v-1.3h6.09v1.3Z"/><path d="M202.25,137.49v-12h5v1.35h-3.57v3.77h3.33v1.27h-3.33v4.21h3.74v1.37Z"/><path d="M218.12,137.49l-3.82-9.28h-.05v9.28h-1.4v-12h1.83l3.77,9.3h.05v-9.3h1.4v12Z"/><path d="M228.4,126.82v10.67h-1.52V126.82H224.6v-1.3h6.09v1.3Z"/><path d="M241.56,137.49v-12h1.52v10.56h3.38v1.42Z"/><path d="M256.44,137.49l-.68-2.81H252.3l-.69,2.81h-1.54l3-12h2l2.94,12Zm-2.35-10.55H254l-1.52,6.55h3.06Z"/><path d="M267.3,131.19a2.48,2.48,0,0,1,.68.27,2.44,2.44,0,0,1,.67.57,3.1,3.1,0,0,1,.51.9,4.07,4.07,0,0,1-.1,2.82,2.9,2.9,0,0,1-1.83,1.57,4,4,0,0,1-1.12.17h-3.24v-12h2.88a4.94,4.94,0,0,1,1.07.13,2.87,2.87,0,0,1,1,.46,2.59,2.59,0,0,1,.78.91,3.09,3.09,0,0,1,.3,1.45,3.49,3.49,0,0,1-.14,1,2.67,2.67,0,0,1-.36.77,2.28,2.28,0,0,1-.52.55,2.39,2.39,0,0,1-.62.34Zm.22-2.49a2.13,2.13,0,0,0-.17-.91,1.7,1.7,0,0,0-.44-.59,1.58,1.58,0,0,0-.62-.32,2.7,2.7,0,0,0-.72-.09h-1.27v3.87h1.3a2.26,2.26,0,0,0,.68-.11,1.76,1.76,0,0,0,.62-.34,1.66,1.66,0,0,0,.44-.6A2.15,2.15,0,0,0,267.52,128.7Zm.32,5.4a2.55,2.55,0,0,0-.19-1,2,2,0,0,0-.5-.7,1.94,1.94,0,0,0-.68-.38,2.5,2.5,0,0,0-.75-.12h-1.4v4.36h1.47a2.52,2.52,0,0,0,.8-.13,1.82,1.82,0,0,0,.66-.38,1.76,1.76,0,0,0,.44-.65A2.61,2.61,0,0,0,267.84,134.1Z"/></g></g></svg>